control3min_grf.mot
version=1
nRows=17
nColumns 19
inDegrees=yes
endheader
time	1_ground_force_vx	1_ground_force_vy	1_ground_force_vz	1_ground_force_px	1_ground_force_py	1_ground_force_pz	1_ground_torque_x	1_ground_torque_y	1_ground_torque_z	2_ground_force_vx	2_ground_force_vy	2_ground_force_vz	2_ground_force_px	2_ground_force_py	2_ground_force_pz	2_ground_torque_x	2_ground_torque_y	2_ground_torque_z
            2.502500	            0.138417	            3.242253	            0.609699	           -0.233013	            0.005581	           -0.255695	            0.235303	           -0.166170	           -0.014346	            0.179116	            2.212967	           -0.696117	           -0.232311	            0.006130	           -0.833667	           -0.187247	           -0.179943	           -0.094812
            2.503000	            0.276075	            3.782683	            0.703388	           -0.233013	            0.005581	           -0.255695	            0.249823	           -0.119884	           -0.008339	            0.508353	            1.846189	           -0.791426	           -0.232311	            0.006130	           -0.833667	           -0.168563	           -0.160701	           -0.170153
            2.503500	            0.229680	            3.062791	            0.425275	           -0.233013	            0.005581	           -0.255695	            0.243283	           -0.092267	            0.008665	            0.087286	            1.661188	           -0.979616	           -0.232311	            0.006130	           -0.833667	           -0.074772	           -0.122551	           -0.170058
            2.504000	            0.275733	            3.783273	            0.565821	           -0.233013	            0.005581	           -0.255695	            0.218240	           -0.129299	            0.029296	            0.130813	            2.582099	           -0.976351	           -0.232311	            0.006130	           -0.833667	           -0.187809	           -0.028566	           -0.131973
            2.504500	            0.321834	            4.864090	            0.753768	           -0.233013	            0.005581	           -0.255695	            0.247176	           -0.110618	           -0.006376	            0.084669	            2.397447	           -0.883132	           -0.232311	            0.006130	           -0.833667	           -0.131529	           -0.009390	           -0.150779
            2.505000	            0.138480	            4.143188	            0.705276	           -0.233013	            0.005581	           -0.255695	            0.268491	           -0.129429	            0.042091	           -0.005584	            1.475362	           -0.604809	           -0.232311	            0.006130	           -0.833667	           -0.112735	           -0.018573	           -0.207372
            2.505500	            0.230070	            3.422536	            0.610244	           -0.233013	            0.005581	           -0.255695	            0.160482	           -0.166787	            0.140125	            0.040560	            1.660015	           -0.698028	           -0.232311	            0.006130	           -0.833667	           -0.074712	           -0.141389	           -0.188976
            2.506000	            0.184766	            2.340344	            0.743288	           -0.233013	            0.005581	           -0.255695	            0.249024	           -0.148058	            0.081675	            0.371791	            0.740792	           -0.795309	           -0.232311	            0.006130	           -0.833667	            0.000566	           -0.178929	           -0.189143
            2.506500	            0.321804	            3.782889	            0.657419	           -0.233013	            0.005581	           -0.255695	            0.289609	           -0.129584	            0.106264	            0.039251	            2.028144	           -0.649786	           -0.232311	            0.006130	           -0.833667	           -0.074721	           -0.141322	           -0.207826
            2.507000	            0.138348	            4.864251	            0.708367	           -0.233013	            0.005581	           -0.255695	            0.268131	           -0.185050	            0.079424	            0.039292	            2.027809	           -0.555930	           -0.232311	            0.006130	           -0.833667	           -0.168665	           -0.132343	           -0.170052
            2.507500	            0.367778	            3.061835	            0.654213	           -0.233013	            0.005581	           -0.255695	            0.271255	           -0.110999	            0.089572	            0.132889	            2.028984	           -0.790610	           -0.232311	            0.006130	           -0.833667	           -0.112889	            0.028556	           -0.169503
            2.508000	            0.046680	            4.143367	            0.659647	           -0.233013	            0.005581	           -0.255695	            0.232654	           -0.101346	           -0.055599	            0.130149	            2.766247	           -0.975694	           -0.232311	            0.006130	           -0.833667	           -0.093899	           -0.028092	           -0.169713
            2.508500	           -0.090816	            3.963075	            0.659216	           -0.233013	            0.005581	           -0.255695	            0.232769	           -0.175357	           -0.061775	            0.222560	            3.134547	           -0.880564	           -0.232311	            0.006130	           -0.833667	           -0.168990	           -0.037951	           -0.132014
            2.509000	            0.138303	            3.242449	            0.563843	           -0.233013	            0.005581	           -0.255695	            0.124626	           -0.166193	           -0.014071	            0.182336	            1.293062	           -0.934042	           -0.232311	            0.006130	           -0.833667	           -0.206321	           -0.104255	           -0.132235
            2.509500	            0.183738	            3.603579	            0.427707	           -0.233013	            0.005581	           -0.255695	            0.224580	           -0.102260	            0.175878	            0.411392	            2.766090	           -0.647317	           -0.232311	            0.006130	           -0.833667	           -0.243679	           -0.161174	           -0.113571
            2.510000	            0.321624	            4.143617	            0.613109	           -0.233013	            0.005581	           -0.255695	            0.291099	           -0.129182	            0.012259	            0.177704	            2.581933	           -0.882515	           -0.232311	            0.006130	           -0.833667	           -0.187263	           -0.179809	           -0.132512
            2.510500	            0.138366	            4.143385	            0.659420	           -0.233013	            0.005581	           -0.255695	            0.383077	           -0.120165	            0.041847	            0.271445	            2.581937	           -0.788698	           -0.232311	            0.006130	           -0.833667	           -0.112598	           -0.056384	           -0.207507
